<?xml version="1.0" encoding="UTF-8" standalone="no"?>
<!-- Created with Inkscape (http://www.inkscape.org/) -->

<svg
   width="136.51338mm"
   height="34.275909mm"
   viewBox="0 0 136.51338 34.275909"
   version="1.1"
   id="svg11203"
   inkscape:version="1.2 (dc2aedaf03, 2022-05-15)"
   sodipodi:docname="problem.svg"
   xmlns:inkscape="http://www.inkscape.org/namespaces/inkscape"
   xmlns:sodipodi="http://sodipodi.sourceforge.net/DTD/sodipodi-0.dtd"
   xmlns="http://www.w3.org/2000/svg"
   xmlns:svg="http://www.w3.org/2000/svg">
  <sodipodi:namedview
     id="namedview11205"
     pagecolor="#ffffff"
     bordercolor="#666666"
     borderopacity="1.0"
     inkscape:showpageshadow="2"
     inkscape:pageopacity="0.0"
     inkscape:pagecheckerboard="0"
     inkscape:deskcolor="#d1d1d1"
     inkscape:document-units="mm"
     showgrid="false"
     inkscape:zoom="1.3826038"
     inkscape:cx="189.49752"
     inkscape:cy="39.780015"
     inkscape:window-width="1920"
     inkscape:window-height="974"
     inkscape:window-x="-11"
     inkscape:window-y="-11"
     inkscape:window-maximized="1"
     inkscape:current-layer="layer1" />
  <defs
     id="defs11200" />
  <g
     inkscape:label="Ebene 1"
     inkscape:groupmode="layer"
     id="layer1"
     transform="translate(-33.09179,-157.93817)">
    <path
       style="fill:none;stroke:#000000;stroke-width:0.5;stroke-linecap:butt;stroke-linejoin:miter;stroke-dasharray:none;stroke-opacity:1"
       d="m 33.829045,176.18167 49.525721,-17.86174 -5.953911,33.55841 z"
       id="path11324" />
    <path
       style="fill:none;stroke:#000000;stroke-width:0.5;stroke-linecap:butt;stroke-linejoin:miter;stroke-dasharray:none;stroke-opacity:1"
       d="m 108.52358,176.72293 -25.168814,-18.403"
       id="path11326" />
    <path
       style="fill:none;stroke:#000000;stroke-width:0.5;stroke-linecap:butt;stroke-linejoin:miter;stroke-dasharray:none;stroke-opacity:1"
       d="M 77.400853,191.87834 108.52358,176.72293"
       id="path11328" />
    <path
       style="fill:none;stroke:#000000;stroke-width:0.5;stroke-linecap:butt;stroke-linejoin:miter;stroke-dasharray:none;stroke-opacity:1"
       d="m 137.75187,158.21314 -54.397104,0.10679"
       id="path11330" />
    <path
       style="fill:none;stroke:#000000;stroke-width:0.5;stroke-linecap:butt;stroke-linejoin:miter;stroke-dasharray:none;stroke-opacity:1"
       d="m 108.52358,176.72293 29.22829,-18.50979"
       id="path11332" />
    <path
       style="fill:none;stroke:#000000;stroke-width:0.5;stroke-linecap:butt;stroke-linejoin:miter;stroke-dasharray:none;stroke-opacity:1"
       d="m 152.09539,187.54823 -43.57181,-10.8253"
       id="path11334" />
    <path
       style="fill:none;stroke:#000000;stroke-width:0.5;stroke-linecap:butt;stroke-linejoin:miter;stroke-dasharray:none;stroke-opacity:1"
       d="m 137.75187,158.21314 14.34352,29.33509"
       id="path11336" />
    <path
       style="fill:none;stroke:#000000;stroke-width:0.5;stroke-linecap:butt;stroke-linejoin:miter;stroke-dasharray:none;stroke-opacity:1"
       d="m 169.41586,167.46803 -17.32047,20.0802"
       id="path11338" />
    <path
       style="fill:none;stroke:#000000;stroke-width:0.5;stroke-linecap:butt;stroke-linejoin:miter;stroke-dasharray:none;stroke-opacity:1"
       d="m 137.75187,158.21314 31.66399,9.25489"
       id="path11340" />
    <path
       style="fill:#000000;fill-opacity:1;stroke:#000000;stroke-width:0.133145;stroke-linecap:round;stroke-linejoin:bevel;stroke-dasharray:none;stroke-opacity:1"
       id="path2694"
       sodipodi:type="arc"
       sodipodi:cx="62.098263"
       sodipodi:cy="175.08696"
       sodipodi:rx="0.65596139"
       sodipodi:ry="0.67097443"
       sodipodi:start="6.2662696"
       sodipodi:end="6.2633691"
       sodipodi:open="true"
       sodipodi:arc-type="arc"
       d="m 62.75413,175.07561 a 0.65596139,0.67097443 0 0 1 -0.644296,0.68222 0.65596139,0.67097443 0 0 1 -0.667422,-0.65855 0.65596139,0.67097443 0 0 1 0.643329,-0.68317 0.65596139,0.67097443 0 0 1 0.668354,0.65755" />
    <path
       style="fill:#000000;fill-opacity:1;stroke:#000000;stroke-width:0.133145;stroke-linecap:round;stroke-linejoin:bevel;stroke-dasharray:none;stroke-opacity:1"
       id="path12104"
       sodipodi:type="arc"
       sodipodi:cx="155.46643"
       sodipodi:cy="169.47234"
       sodipodi:rx="0.65596139"
       sodipodi:ry="0.67097443"
       sodipodi:start="6.2662696"
       sodipodi:end="6.2633691"
       sodipodi:open="true"
       sodipodi:arc-type="arc"
       d="m 156.1223,169.46099 a 0.65596139,0.67097443 0 0 1 -0.6443,0.68222 0.65596139,0.67097443 0 0 1 -0.66742,-0.65855 0.65596139,0.67097443 0 0 1 0.64333,-0.68318 0.65596139,0.67097443 0 0 1 0.66835,0.65756" />
    <path
       style="fill:none;stroke:#000000;stroke-width:0.264583px;stroke-linecap:butt;stroke-linejoin:miter;stroke-opacity:1"
       d="m 62.098263,175.08696 93.368167,-5.61463"
       id="path12106" />
    <text
       xml:space="preserve"
       style="font-size:3.52777px;line-height:1.25;font-family:sans-serif;stroke-width:0.264583"
       x="152.12144"
       y="175.35193"
       id="text2810"><tspan
         sodipodi:role="line"
         id="tspan2808"
         style="stroke-width:0.264583"
         x="152.12144"
         y="175.35193">$p$</tspan></text>
    <text
       xml:space="preserve"
       style="font-size:3.52777px;line-height:1.25;font-family:sans-serif;stroke-width:0.264583"
       x="59.467865"
       y="180.088"
       id="text14690"><tspan
         sodipodi:role="line"
         style="stroke-width:0.264583"
         x="59.467865"
         y="180.088"
         id="tspan14692">$q$</tspan></text>
    <path
       style="fill:#000000;fill-opacity:1;stroke:#000000;stroke-width:0.133145;stroke-linecap:round;stroke-linejoin:bevel;stroke-dasharray:none;stroke-opacity:1"
       id="path15422"
       sodipodi:type="arc"
       sodipodi:cx="80.593109"
       sodipodi:cy="173.95653"
       sodipodi:rx="0.65596139"
       sodipodi:ry="0.67097443"
       sodipodi:start="6.2662696"
       sodipodi:end="6.2633691"
       sodipodi:open="true"
       sodipodi:arc-type="arc"
       d="m 81.248977,173.94518 a 0.65596139,0.67097443 0 0 1 -0.644297,0.68222 0.65596139,0.67097443 0 0 1 -0.667422,-0.65855 0.65596139,0.67097443 0 0 1 0.643329,-0.68317 0.65596139,0.67097443 0 0 1 0.668355,0.65755" />
    <path
       style="fill:#000000;fill-opacity:1;stroke:#000000;stroke-width:0.133145;stroke-linecap:round;stroke-linejoin:bevel;stroke-dasharray:none;stroke-opacity:1"
       id="path15424"
       sodipodi:type="arc"
       sodipodi:cx="102.81813"
       sodipodi:cy="172.62758"
       sodipodi:rx="0.65596139"
       sodipodi:ry="0.67097443"
       sodipodi:start="6.2662696"
       sodipodi:end="6.2633691"
       sodipodi:open="true"
       sodipodi:arc-type="arc"
       d="m 103.474,172.61623 a 0.65596139,0.67097443 0 0 1 -0.6443,0.68222 0.65596139,0.67097443 0 0 1 -0.66742,-0.65855 0.65596139,0.67097443 0 0 1 0.64333,-0.68317 0.65596139,0.67097443 0 0 1 0.66835,0.65755" />
    <path
       style="fill:#000000;fill-opacity:1;stroke:#000000;stroke-width:0.133145;stroke-linecap:round;stroke-linejoin:bevel;stroke-dasharray:none;stroke-opacity:1"
       id="path15426"
       sodipodi:type="arc"
       sodipodi:cx="143.56389"
       sodipodi:cy="170.17265"
       sodipodi:rx="0.65596139"
       sodipodi:ry="0.67097443"
       sodipodi:start="6.2662696"
       sodipodi:end="6.2633691"
       sodipodi:open="true"
       sodipodi:arc-type="arc"
       d="m 144.21976,170.1613 a 0.65596139,0.67097443 0 0 1 -0.6443,0.68222 0.65596139,0.67097443 0 0 1 -0.66742,-0.65854 0.65596139,0.67097443 0 0 1 0.64333,-0.68318 0.65596139,0.67097443 0 0 1 0.66835,0.65756" />
    <path
       style="fill:#000000;fill-opacity:1;stroke:#000000;stroke-width:0.133145;stroke-linecap:round;stroke-linejoin:bevel;stroke-dasharray:none;stroke-opacity:1"
       id="path15428"
       sodipodi:type="arc"
       sodipodi:cx="116.14299"
       sodipodi:cy="171.83191"
       sodipodi:rx="0.65596139"
       sodipodi:ry="0.67097443"
       sodipodi:start="6.2662696"
       sodipodi:end="6.2633691"
       sodipodi:open="true"
       sodipodi:arc-type="arc"
       d="m 116.79886,171.82056 a 0.65596139,0.67097443 0 0 1 -0.6443,0.68222 0.65596139,0.67097443 0 0 1 -0.66742,-0.65855 0.65596139,0.67097443 0 0 1 0.64333,-0.68317 0.65596139,0.67097443 0 0 1 0.66835,0.65755" />
  </g>
</svg>
